<?xml version="1.0" encoding="UTF-8"?>
<svg xmlns="http://www.w3.org/2000/svg" xmlns:xlink="http://www.w3.org/1999/xlink" viewBox="0 0 80 80" width="50px" height="50px">
<g id="surface29367302">
<path style=" stroke:none;fill-rule:nonzero;fill:rgb(100%,100%,100%);fill-opacity:1;" d="M 6.996094 77.5 C 5.796875 77.5 4.667969 77.03125 3.816406 76.183594 C 2.0625 74.429688 2.0625 71.574219 3.816406 69.824219 L 40.644531 34.714844 L 45.300781 39.375 L 10.171875 76.191406 C 9.328125 77.03125 8.199219 77.5 6.996094 77.5 Z M 6.996094 77.5 "/>
<path style=" stroke:none;fill-rule:nonzero;fill:rgb(0%,51.764709%,98.039216%);fill-opacity:1;" d="M 40.636719 35.410156 L 44.601562 39.382812 L 9.824219 75.828125 C 9.070312 76.585938 8.066406 77 6.996094 77 C 5.929688 77 4.925781 76.585938 4.171875 75.828125 C 2.613281 74.269531 2.613281 71.734375 4.152344 70.191406 L 40.636719 35.410156 M 40.652344 34.011719 L 3.464844 69.46875 C 1.511719 71.421875 1.511719 74.585938 3.464844 76.535156 C 4.441406 77.511719 5.71875 78 6.996094 78 C 8.277344 78 9.554688 77.511719 10.53125 76.535156 L 46 39.367188 Z M 40.652344 34.011719 "/>
<path style=" stroke:none;fill-rule:nonzero;fill:rgb(100%,100%,100%);fill-opacity:1;" d="M 52 53.5 C 37.9375 53.5 26.5 42.0625 26.5 28 C 26.5 13.9375 37.9375 2.5 52 2.5 C 66.0625 2.5 77.5 13.9375 77.5 28 C 77.5 42.0625 66.0625 53.5 52 53.5 Z M 52 53.5 "/>
<path style=" stroke:none;fill-rule:nonzero;fill:rgb(0%,51.764709%,98.039216%);fill-opacity:1;" d="M 52 3 C 65.785156 3 77 14.214844 77 28 C 77 41.785156 65.785156 53 52 53 C 38.214844 53 27 41.785156 27 28 C 27 14.214844 38.214844 3 52 3 M 52 2 C 37.640625 2 26 13.640625 26 28 C 26 42.359375 37.640625 54 52 54 C 66.359375 54 78 42.359375 78 28 C 78 13.640625 66.359375 2 52 2 Z M 52 2 "/>
</g>
</svg>
